<!DOCTYPE svg PUBLIC "-//W3C//DTD SVG 20010904//EN" "http://www.w3.org/TR/2001/REC-SVG-20010904/DTD/svg10.dtd">
<svg version="1.0" xmlns="http://www.w3.org/2000/svg" width="500px" height="500px" viewBox="0 0 5000 5000" preserveAspectRatio="xMidYMid meet">
<g id="layer101" fill="#ffffff" stroke="none">
 <path d="M2260 4754 c-938 -117 -1689 -753 -1940 -1643 -63 -227 -75 -320 -75 -611 0 -234 3 -279 23 -385 182 -963 884 -1665 1847 -1847 106 -20 151 -23 385 -23 234 0 279 3 385 23 963 182 1665 884 1847 1847 20 106 23 151 23 385 0 234 -3 279 -23 385 -73 388 -221 717 -459 1023 -36 46 -70 81 -76 79 -26 -8 -16 -39 33 -99 172 -210 325 -506 404 -776 116 -396 116 -828 0 -1224 -101 -348 -290 -671 -543 -932 -576 -592 -1422 -818 -2203 -590 -731 213 -1309 791 -1522 1522 -116 396 -116 828 0 1224 148 506 471 945 913 1239 366 243 781 369 1221 369 411 0 788 -106 1146 -321 45 -27 85 -49 88 -49 3 0 6 10 6 23 0 54 -364 232 -629 307 -211 59 -314 72 -576 75 -132 2 -256 1 -275 -1z"/>
 <path d="M3873 4390 c-153 -88 -153 -312 0 -400 112 -64 253 -28 317 83 64 112 28 253 -83 317 -43 25 -63 30 -117 30 -54 0 -74 -5 -117 -30z"/>
 </g>

</svg>